<?xml version="1.0"?>
<svg xmlns="http://www.w3.org/2000/svg" height="512px" viewBox="-38 0 511 512" width="512px" class=""><g><path d="m218.015625 285c23.5625 0 46.101563-12.472656 63.46875-35.121094 18.726563-24.429687 29.039063-57.234375 29.039063-92.378906s-10.3125-67.949219-29.039063-92.378906c-17.367187-22.648438-39.90625-35.121094-63.46875-35.121094-23.558594 0-46.097656 12.472656-63.464844 35.121094-18.726562 24.429687-29.039062 57.234375-29.039062 92.378906s10.3125 67.949219 29.039062 92.378906c17.367188 22.648438 39.90625 35.121094 63.464844 35.121094zm-51.5625-210.75c14.464844-18.863281 32.777344-29.25 51.5625-29.25 18.789063 0 37.101563 10.386719 51.5625 29.25 16.730469 21.820312 25.945313 51.386719 25.945313 83.25s-9.214844 61.429688-25.945313 83.25c-14.464844 18.863281-32.773437 29.25-51.5625 29.25-18.785156 0-37.097656-10.386719-51.558594-29.25-16.730469-21.820312-25.945312-51.386719-25.945312-83.25s9.214843-61.429688 25.941406-83.25zm0 0" data-original="#000000" class="active-path" data-old_color="#000000" fill="#FFFFFF"/><path d="m225.515625 157.5c0 4.140625-3.355469 7.5-7.5 7.5-4.140625 0-7.5-3.359375-7.5-7.5s3.359375-7.5 7.5-7.5c4.144531 0 7.5 3.359375 7.5 7.5zm0 0" data-original="#000000" class="active-path" data-old_color="#000000" fill="#FFFFFF"/><path d="m285.769531 157.5c0 4.140625-3.355469 7.5-7.5 7.5-4.140625 0-7.5-3.359375-7.5-7.5s3.359375-7.5 7.5-7.5c4.144531 0 7.5 3.359375 7.5 7.5zm0 0" data-original="#000000" class="active-path" data-old_color="#000000" fill="#FFFFFF"/><path d="m165.261719 157.5c0 4.140625-3.359375 7.5-7.5 7.5s-7.5-3.359375-7.5-7.5 3.359375-7.5 7.5-7.5 7.5 3.359375 7.5 7.5zm0 0" data-original="#000000" class="active-path" data-old_color="#000000" fill="#FFFFFF"/><path d="m255.472656 157.5c0 4.140625-3.355468 7.5-7.5 7.5-4.140625 0-7.5-3.359375-7.5-7.5s3.359375-7.5 7.5-7.5c4.144532 0 7.5 3.359375 7.5 7.5zm0 0" data-original="#000000" class="active-path" data-old_color="#000000" fill="#FFFFFF"/><path d="m195.558594 157.5c0 4.140625-3.359375 7.5-7.5 7.5s-7.5-3.359375-7.5-7.5 3.359375-7.5 7.5-7.5 7.5 3.359375 7.5 7.5zm0 0" data-original="#000000" class="active-path" data-old_color="#000000" fill="#FFFFFF"/><path d="m252.554688 228.730469c0 4.140625-3.359376 7.5-7.5 7.5-4.144532 0-7.5-3.359375-7.5-7.5 0-4.144531 3.355468-7.5 7.5-7.5 4.140624 0 7.5 3.355469 7.5 7.5zm0 0" data-original="#000000" class="active-path" data-old_color="#000000" fill="#FFFFFF"/><path d="m198.480469 228.730469c0 4.140625-3.359375 7.5-7.5 7.5-4.144531 0-7.5-3.359375-7.5-7.5 0-4.144531 3.355469-7.5 7.5-7.5 4.140625 0 7.5 3.355469 7.5 7.5zm0 0" data-original="#000000" class="active-path" data-old_color="#000000" fill="#FFFFFF"/><path d="m225.515625 212.996094c0 4.144531-3.355469 7.5-7.5 7.5-4.140625 0-7.5-3.355469-7.5-7.5 0-4.140625 3.359375-7.5 7.5-7.5 4.144531 0 7.5 3.359375 7.5 7.5zm0 0" data-original="#000000" class="active-path" data-old_color="#000000" fill="#FFFFFF"/><path d="m225.515625 247.820312c0 4.144532-3.355469 7.5-7.5 7.5-4.140625 0-7.5-3.355468-7.5-7.5 0-4.140624 3.359375-7.5 7.5-7.5 4.144531 0 7.5 3.359376 7.5 7.5zm0 0" data-original="#000000" class="active-path" data-old_color="#000000" fill="#FFFFFF"/><path d="m183.203125 207.078125c0 4.144531-3.355469 7.5-7.5 7.5-4.140625 0-7.5-3.355469-7.5-7.5 0-4.140625 3.359375-7.5 7.5-7.5 4.144531 0 7.5 3.359375 7.5 7.5zm0 0" data-original="#000000" class="active-path" data-old_color="#000000" fill="#FFFFFF"/><path d="m267.828125 207.078125c0 4.144531-3.359375 7.5-7.5 7.5s-7.5-3.355469-7.5-7.5c0-4.140625 3.359375-7.5 7.5-7.5s7.5 3.359375 7.5 7.5zm0 0" data-original="#000000" class="active-path" data-old_color="#000000" fill="#FFFFFF"/><path d="m244.015625 188.453125c0 4.144531-3.359375 7.5-7.5 7.5-4.144531 0-7.5-3.355469-7.5-7.5 0-4.140625 3.355469-7.5 7.5-7.5 4.140625 0 7.5 3.359375 7.5 7.5zm0 0" data-original="#000000" class="active-path" data-old_color="#000000" fill="#FFFFFF"/><path d="m282.019531 183.289062c0 4.140626-3.355469 7.5-7.5 7.5-4.140625 0-7.5-3.359374-7.5-7.5 0-4.144531 3.359375-7.5 7.5-7.5 4.144531 0 7.5 3.355469 7.5 7.5zm0 0" data-original="#000000" class="active-path" data-old_color="#000000" fill="#FFFFFF"/><path d="m169.011719 183.289062c0 4.140626-3.359375 7.5-7.5 7.5s-7.5-3.359374-7.5-7.5c0-4.144531 3.359375-7.5 7.5-7.5s7.5 3.355469 7.5 7.5zm0 0" data-original="#000000" class="active-path" data-old_color="#000000" fill="#FFFFFF"/><path d="m207.058594 188.453125c0 4.144531-3.355469 7.5-7.5 7.5-4.140625 0-7.5-3.355469-7.5-7.5 0-4.140625 3.359375-7.5 7.5-7.5 4.144531 0 7.5 3.359375 7.5 7.5zm0 0" data-original="#000000" class="active-path" data-old_color="#000000" fill="#FFFFFF"/><path d="m252.554688 86.269531c0 4.144531-3.359376 7.5-7.5 7.5-4.144532 0-7.5-3.355469-7.5-7.5 0-4.140625 3.355468-7.5 7.5-7.5 4.140624 0 7.5 3.359375 7.5 7.5zm0 0" data-original="#000000" class="active-path" data-old_color="#000000" fill="#FFFFFF"/><path d="m198.480469 86.269531c0 4.144531-3.359375 7.5-7.5 7.5-4.144531 0-7.5-3.355469-7.5-7.5 0-4.140625 3.355469-7.5 7.5-7.5 4.140625 0 7.5 3.359375 7.5 7.5zm0 0" data-original="#000000" class="active-path" data-old_color="#000000" fill="#FFFFFF"/><path d="m225.515625 102.003906c0 4.140625-3.355469 7.5-7.5 7.5-4.140625 0-7.5-3.359375-7.5-7.5 0-4.144531 3.359375-7.5 7.5-7.5 4.144531 0 7.5 3.355469 7.5 7.5zm0 0" data-original="#000000" class="active-path" data-old_color="#000000" fill="#FFFFFF"/><path d="m225.515625 67.179688c0 4.140624-3.355469 7.5-7.5 7.5-4.140625 0-7.5-3.359376-7.5-7.5 0-4.144532 3.359375-7.5 7.5-7.5 4.144531 0 7.5 3.355468 7.5 7.5zm0 0" data-original="#000000" class="active-path" data-old_color="#000000" fill="#FFFFFF"/><path d="m183.203125 107.921875c0 4.140625-3.355469 7.5-7.5 7.5-4.140625 0-7.5-3.359375-7.5-7.5 0-4.144531 3.359375-7.5 7.5-7.5 4.144531 0 7.5 3.355469 7.5 7.5zm0 0" data-original="#000000" class="active-path" data-old_color="#000000" fill="#FFFFFF"/><path d="m267.828125 107.921875c0 4.140625-3.359375 7.5-7.5 7.5s-7.5-3.359375-7.5-7.5c0-4.144531 3.359375-7.5 7.5-7.5s7.5 3.355469 7.5 7.5zm0 0" data-original="#000000" class="active-path" data-old_color="#000000" fill="#FFFFFF"/><path d="m244.015625 126.546875c0 4.140625-3.359375 7.5-7.5 7.5-4.144531 0-7.5-3.359375-7.5-7.5 0-4.144531 3.355469-7.5 7.5-7.5 4.140625 0 7.5 3.355469 7.5 7.5zm0 0" data-original="#000000" class="active-path" data-old_color="#000000" fill="#FFFFFF"/><path d="m282.019531 131.710938c0 4.144531-3.355469 7.5-7.5 7.5-4.140625 0-7.5-3.355469-7.5-7.5 0-4.140626 3.359375-7.5 7.5-7.5 4.144531 0 7.5 3.359374 7.5 7.5zm0 0" data-original="#000000" class="active-path" data-old_color="#000000" fill="#FFFFFF"/><path d="m169.011719 131.710938c0 4.144531-3.359375 7.5-7.5 7.5s-7.5-3.355469-7.5-7.5c0-4.140626 3.359375-7.5 7.5-7.5s7.5 3.359374 7.5 7.5zm0 0" data-original="#000000" class="active-path" data-old_color="#000000" fill="#FFFFFF"/><path d="m207.058594 126.546875c0 4.140625-3.355469 7.5-7.5 7.5-4.140625 0-7.5-3.359375-7.5-7.5 0-4.144531 3.359375-7.5 7.5-7.5 4.144531 0 7.5 3.355469 7.5 7.5zm0 0" data-original="#000000" class="active-path" data-old_color="#000000" fill="#FFFFFF"/><path d="m114.082031 398.429688c-7.839843-7.839844-18.261719-12.15625-29.347656-12.15625s-21.507813 4.316406-29.347656 12.152343l-12.726563 12.730469c-7.839844 7.835938-12.15625 18.257812-12.15625 29.34375s4.316406 21.507812 12.15625 29.34375c7.835938 7.839844 18.261719 12.15625 29.347656 12.15625 11.085938 0 21.507813-4.316406 29.34375-12.15625l12.730469-12.726562c7.839844-7.839844 12.15625-18.261719 12.15625-29.347657 0-11.082031-4.316406-21.503906-12.15625-29.339843zm-10.605469 48.082031-12.730468 12.726562c-5.007813 5.003907-11.660156 7.761719-18.738282 7.761719-7.082031 0-13.734374-2.757812-18.742187-7.761719-5.003906-5.003906-7.761719-11.660156-7.761719-18.738281s2.757813-13.730469 7.761719-18.738281l12.730469-12.726563c5.003906-5.007812 11.660156-7.761718 18.738281-7.761718s13.734375 2.753906 18.742187 7.761718c5.003907 5.003906 7.761719 11.660156 7.761719 18.738282 0 7.078124-2.757812 13.730468-7.761719 18.738281zm0 0" data-original="#000000" class="active-path" data-old_color="#000000" fill="#FFFFFF"/><path d="m414.589844 389.941406-12.730469-12.726562c-13.503906-13.503906-31.460937-20.941406-50.558594-20.941406-19.101562 0-37.058593 7.4375-50.5625 20.941406l-21.214843 21.210937c-.164063.164063-.3125.332031-.472657.496094l-10.816406-5.199219c-.199219-6.738281-.507813-13.671875-.917969-20.710937l24.035156-24.03125c2.929688-2.929688 2.929688-7.675781 0-10.605469-2.929687-2.929688-7.675781-2.929688-10.605468 0l-34.445313 34.4375-17.675781-17.671875 109.28125-109.273437c8.449219 11.542968 7.460938 27.890624-2.960938 38.316406l-31.570312 31.5625c-2.929688 2.929687-2.929688 7.679687 0 10.609375 2.929688 2.925781 7.679688 2.929687 10.605469 0l31.574219-31.566407c17.359374-17.367187 17.355468-45.625-.003907-62.984374-1.945312-1.945313-4.625-3.058594-7.277343-3.058594-2.828126.011718-5.523438 1.0625-7.519532 3.058594l-8.375 8.378906c11.820313-24.609375 18.148438-53.035156 18.148438-82.683594 0-41.707031-12.511719-80.996094-35.230469-110.628906-23.179687-30.226563-54.175781-46.871094-87.28125-46.871094-38.769531 0-74.398437 22.761719-97.753906 62.449219-2.101563 3.570312-.910157 8.167969 2.660156 10.269531 3.574219 2.101562 8.167969.910156 10.269531-2.660156 20.589844-34.992188 51.507813-55.058594 84.824219-55.058594 59.28125 0 107.507813 63.925781 107.507813 142.5s-48.226563 142.5-107.507813 142.5c-59.277344 0-107.507813-63.925781-107.507813-142.5 0-20.871094 3.339844-40.984375 9.925782-59.78125 1.367187-3.910156-.691406-8.1875-4.601563-9.558594-3.910156-1.371094-8.1875.691406-9.558593 4.597656-7.144532 20.398438-10.765626 42.179688-10.765626 64.742188 0 29.652344 6.332032 58.078125 18.152344 82.683594l-8.378906-8.375c-1.96875-1.972656-4.59375-3.058594-7.292969-3.058594h-.003906c-2.78125-.054688-5.519531 1.078125-7.5 3.058594-17.359375 17.355468-17.359375 45.613281 0 62.984375l78.238281 78.226562c-.414062 7.035157-.71875 13.964844-.921875 20.703125l-10.816406 5.199219c-.160156-.164063-.3125-.332031-.472656-.492187l-21.214844-21.214844c-13.507813-13.503906-31.460937-20.941406-50.5625-20.941406s-37.058594 7.4375-50.5625 20.941406l-12.730469 12.726562c-13.503906 13.503906-20.941406 31.460938-20.941406 50.558594s7.4375 37.054688 20.941406 50.558594c13.941406 13.9375 32.253906 20.90625 50.5625 20.90625 18.3125 0 36.625-6.96875 50.5625-20.90625l32.855469-32.855469 14.015625-6.738281c.214844 1.878906.441406 3.722656.6875 5.488281.527344 3.75 3.738281 6.457031 7.417969 6.457031.347656 0 .699219-.023437 1.054687-.070312 4.101563-.578125 6.960938-4.371094 6.382813-8.472656-.453125-3.222657-.839844-6.683594-1.171875-10.316407l21.898437-10.53125c.761719-.367187 1.453125-.859375 2.050781-1.457031l10.257813-10.253906 10.257813 10.253906c.597656.597656 1.289062 1.089844 2.050781 1.457031l21.902343 10.535157c-4.757812 52.441406-21.722656 52.445312-34.210937 52.445312-11.386719 0-19.160156-2.253906-25.191406-13.78125-1.921875-3.667969-6.453125-5.085938-10.125-3.164062-3.667969 1.921874-5.085938 6.453124-3.167969 10.121093 10.125 19.34375 25.886719 21.824219 38.484375 21.824219 10.179687 0 23.140625-1.546875 33.085937-13.589844 7.992188-9.679687 12.992188-24.746094 15.503907-46.941406l14.003906 6.734375 32.855469 32.855469c13.941406 13.9375 32.253906 20.90625 50.5625 20.90625 18.3125 0 36.621094-6.96875 50.5625-20.90625 27.878906-27.878906 27.878906-73.238282 0-101.117188zm-168.34375-79.105468c.222656 1.613281.425781 3.222656.636718 4.835937l-28.867187 28.859375-28.863281-28.859375c.210937-1.613281.414062-3.226563.632812-4.835937 9.140625 2.742187 18.59375 4.164062 28.230469 4.164062s19.09375-1.421875 28.230469-4.164062zm-134.285156 169.613281c-22.03125 22.03125-57.878907 22.03125-79.910157 0-10.671875-10.667969-16.550781-24.855469-16.550781-39.949219s5.878906-29.28125 16.550781-39.949219l12.730469-12.730469c10.671875-10.671874 24.859375-16.546874 39.953125-16.546874s29.285156 5.875 39.957031 16.546874l21.214844 21.214844c1.054688 1.054688 2 2.183594 2.851562 3.371094.003907.003906.007813.011719.011719.015625 3.175781 4.457031 4.898438 9.769531 4.898438 15.351563 0 7.078124-2.757813 13.730468-7.761719 18.734374zm86.09375-59.394531-30.117188 14.484374c.476562-2.53125.730469-5.128906.730469-7.765624 0-5.675782-1.140625-11.171876-3.296875-16.242188l12.050781-5.789062c.765625-.367188 1.460937-.859376 2.058594-1.460938l10.25-10.25 17.675781 17.671875zm25.265624-14.65625c0-.003907 0-.003907-.003906-.003907l-28.257812-28.253906c-.007813-.007813-.011719-.015625-.019532-.023437-.007812-.007813-.019531-.015626-.027343-.023438l-93.917969-93.90625c-10.425781-10.429688-11.414062-26.773438-2.964844-38.320312l158.425782 158.417968c.597656.597656 1.292968 1.089844 2.054687 1.457032l12.070313 5.800781c-3.222657 7.609375-4.082032 15.988281-2.5625 24.007812l-30.140626-14.496093zm180.660157 74.050781c-22.03125 22.03125-57.875 22.03125-79.90625 0l-33.945313-33.9375c-10.332031-10.332031-10.332031-27.144531 0-37.476563l21.214844-21.214844c10.671875-10.671874 24.863281-16.546874 39.957031-16.546874 15.089844 0 29.28125 5.875 39.953125 16.546874l12.726563 12.730469c22.03125 22.027344 22.03125 57.871094 0 79.898438zm0 0" data-original="#000000" class="active-path" data-old_color="#000000" fill="#FFFFFF"/><path d="m394.1875 408.417969-12.726562-12.730469c-7.839844-7.835938-18.265626-12.152344-29.351563-12.152344s-21.507813 4.316406-29.34375 12.152344c-7.839844 7.839844-12.15625 18.261719-12.15625 29.347656 0 11.085938 4.316406 21.507813 12.15625 29.34375l12.726563 12.730469c8.089843 8.089844 18.71875 12.132813 29.347656 12.132813s21.257812-4.042969 29.347656-12.132813c16.183594-16.183594 16.183594-42.511719 0-58.691406zm-10.609375 48.082031c-10.332031 10.332031-27.144531 10.332031-37.476563.003906l-12.730468-12.730468c-5.003906-5.003907-7.761719-11.660157-7.761719-18.738282s2.757813-13.730468 7.761719-18.738281h.003906c5.003906-5.003906 11.660156-7.761719 18.738281-7.761719s13.734375 2.757813 18.738281 7.761719l12.730469 12.730469c10.332031 10.328125 10.332031 27.140625-.003906 37.472656zm0 0" data-original="#000000" class="active-path" data-old_color="#000000" fill="#FFFFFF"/></g> </svg>
